<svg width="400" height="400" viewBox="0 0 400 400" fill="none" xmlns="http://www.w3.org/2000/svg">
<mask id="mask0_33_830" style="mask-type:luminance" maskUnits="userSpaceOnUse" x="0" y="0" width="400" height="400">
<circle cx="200" cy="200" r="200" fill="white"/>
</mask>
<g mask="url(#mask0_33_830)">
<path d="M100.018 -207.5L100.725 -208.207L100.019 -208.915L99.311 -208.208L100.018 -207.5ZM100.724 -206.793L101.432 -207.499L100.724 -206.793ZM98.6025 -206.087L97.8958 -206.795L97.1882 -206.088L97.8949 -205.381L98.6025 -206.087ZM99.3091 -205.38L100.017 -206.086L100.017 -206.086L99.3091 -205.38ZM623.275 319.294L623.983 318.587L623.275 319.294ZM623.982 320.001L623.274 320.708L623.981 321.415L624.688 320.709L623.982 320.001ZM625.397 318.588L626.104 319.295L626.811 318.589L626.105 317.881L625.397 318.588ZM624.69 317.88L623.983 318.587L624.69 317.88ZM83.0471 -190.53L83.7546 -191.237L83.048 -191.944L82.3404 -191.237L83.0471 -190.53ZM83.7537 -189.822L84.4613 -190.529L84.4613 -190.529L83.7537 -189.822ZM81.6319 -189.117L80.9253 -189.824L80.2177 -189.118L80.9243 -188.41L81.6319 -189.117ZM82.3385 -188.409L81.6309 -187.702L81.6309 -187.702L82.3385 -188.409ZM606.305 336.264L605.597 336.971L606.305 336.264ZM607.011 336.972L606.304 337.678L607.01 338.386L607.718 337.679L607.011 336.972ZM608.426 335.558L609.133 336.266L609.841 335.559L609.134 334.852L608.426 335.558ZM607.72 334.851L608.427 334.144L607.72 334.851ZM66.7831 -172.852L66.0755 -172.145L66.0755 -172.145L66.7831 -172.852ZM66.0765 -173.559L66.7841 -174.266L66.0774 -174.974L65.3699 -174.267L66.0765 -173.559ZM590.749 351.821L591.457 351.115L590.749 351.821ZM591.456 352.529L592.162 353.237L592.87 352.53L592.163 351.822L591.456 352.529ZM590.041 353.942L589.333 354.649L590.04 355.357L590.747 354.65L590.041 353.942ZM589.334 353.235L590.042 352.528L589.334 353.235ZM65.368 -171.438L64.6604 -170.732L64.6604 -170.732L65.368 -171.438ZM64.6613 -172.146L63.9547 -172.854L63.2471 -172.147L63.9537 -171.439L64.6613 -172.146ZM49.1059 -156.589L49.8135 -157.295L49.1069 -158.003L48.3993 -157.296L49.1059 -156.589ZM49.8126 -155.881L50.5201 -156.588L50.5201 -156.588L49.8126 -155.881ZM47.6908 -155.176L46.9841 -155.883L46.2765 -155.176L46.9832 -154.469L47.6908 -155.176ZM48.3974 -154.468L49.105 -155.175L49.105 -155.175L48.3974 -154.468ZM572.363 370.205L571.656 370.912L572.363 370.205ZM573.07 370.913L572.363 371.619L573.069 372.327L573.777 371.62L573.07 370.913ZM574.485 369.5L575.192 370.207L575.9 369.501L575.193 368.793L574.485 369.5ZM573.779 368.792L573.071 369.499L573.779 368.792ZM32.842 -138.911L33.5496 -139.617L33.5496 -139.617L32.842 -138.911ZM32.1354 -139.618L32.843 -140.325L32.1363 -141.032L31.4287 -140.326L32.1354 -139.618ZM556.808 385.763L556.101 386.469L556.808 385.763ZM557.515 386.47L558.221 387.178L558.929 386.471L558.222 385.764L557.515 386.47ZM556.1 387.883L555.392 388.59L556.099 389.298L556.806 388.591L556.1 387.883ZM555.393 387.176L554.685 387.882L555.393 387.176ZM31.4268 -137.497L32.1344 -138.204L32.1344 -138.204L31.4268 -137.497ZM30.7202 -138.205L30.0136 -138.913L29.306 -138.206L30.0126 -137.498L30.7202 -138.205ZM15.1648 -122.648L15.8724 -123.354L15.1658 -124.062L14.4582 -123.355L15.1648 -122.648ZM15.8714 -121.94L16.579 -122.647L16.579 -122.647L15.8714 -121.94ZM13.7496 -121.234L13.043 -121.942L12.3354 -121.235L13.0421 -120.528L13.7496 -121.234ZM14.4563 -120.527L15.1639 -121.233L15.1639 -121.233L14.4563 -120.527ZM538.422 404.146L537.715 404.853L538.422 404.146ZM539.129 404.854L538.421 405.561L539.128 406.268L539.836 405.562L539.129 404.854ZM540.544 403.441L541.251 404.148L541.958 403.442L541.252 402.734L540.544 403.441ZM539.838 402.733L539.13 403.44L539.838 402.733ZM-1.09901 -104.97L-0.391431 -105.676L-0.391433 -105.676L-1.09901 -104.97ZM-1.80565 -105.677L-1.09807 -106.384L-1.8047 -107.092L-2.51228 -106.385L-1.80565 -105.677ZM522.867 419.703L522.16 420.41L522.867 419.703ZM523.574 420.411L524.28 421.119L524.988 420.412L524.281 419.704L523.574 420.411ZM522.159 421.824L521.451 422.531L522.158 423.239L522.865 422.532L522.159 421.824ZM521.452 421.117L520.744 421.823L521.452 421.117ZM-2.51418 -103.556L-1.8066 -104.263L-1.8066 -104.263L-2.51418 -103.556ZM-3.22081 -104.264L-3.92745 -104.972L-4.63503 -104.265L-3.9284 -103.557L-3.22081 -104.264ZM-18.7763 -88.7065L-18.0687 -89.4131L-18.7754 -90.1207L-19.4829 -89.4141L-18.7763 -88.7065ZM-18.0697 -87.9989L-17.3621 -88.7056L-17.3621 -88.7056L-18.0697 -87.9989ZM-20.1915 -87.2933L-20.8981 -88.0008L-21.6057 -87.2942L-20.8991 -86.5866L-20.1915 -87.2933ZM-19.4849 -86.5857L-18.7773 -87.2923L-18.7773 -87.2923L-19.4849 -86.5857ZM504.481 438.088L503.774 438.794L504.481 438.088ZM505.188 438.795L504.48 439.502L505.187 440.209L505.895 439.503L505.188 438.795ZM506.603 437.382L507.31 438.089L508.017 437.383L507.311 436.675L506.603 437.382ZM505.896 436.674L505.189 437.381L505.896 436.674ZM-35.0402 -71.0284L-34.3327 -71.735L-34.3327 -71.735L-35.0402 -71.0284ZM-35.7469 -71.7359L-35.0393 -72.4426L-35.7459 -73.1502L-36.4535 -72.4435L-35.7469 -71.7359ZM488.926 453.645L488.218 454.351L488.926 453.645ZM489.632 454.352L490.339 455.06L491.047 454.353L490.34 453.646L489.632 454.352ZM488.217 455.766L487.51 456.472L488.216 457.18L488.924 456.473L488.217 455.766ZM487.511 455.058L486.803 455.765L487.511 455.058ZM-36.4554 -69.6151L-35.7478 -70.3217L-35.7478 -70.3217L-36.4554 -69.6151ZM-37.162 -70.3227L-37.8687 -71.0303L-38.5763 -70.3236L-37.8696 -69.6161L-37.162 -70.3227ZM-52.7174 -54.7654L-52.0099 -55.472L-52.7165 -56.1796L-53.4241 -55.473L-52.7174 -54.7654ZM-52.0108 -54.0578L-51.3032 -54.7644L-51.3032 -54.7644L-52.0108 -54.0578ZM-54.1326 -53.3521L-54.8392 -54.0597L-55.5468 -53.3531L-54.8402 -52.6455L-54.1326 -53.3521ZM-53.426 -52.6445L-52.7184 -53.3512L-52.7184 -53.3512L-53.426 -52.6445ZM470.54 472.029L469.833 472.735L470.54 472.029ZM471.247 472.736L470.539 473.443L471.246 474.15L471.953 473.444L471.247 472.736ZM472.662 471.323L473.369 472.031L474.076 471.324L473.369 470.616L472.662 471.323ZM471.955 470.615L471.248 471.322L471.955 470.615ZM-68.9814 -37.0872L-68.2738 -37.7939L-68.2738 -37.7939L-68.9814 -37.0872ZM-69.688 -37.7948L-68.9804 -38.5015L-69.6871 -39.209L-70.3946 -38.5024L-69.688 -37.7948ZM454.985 487.586L454.277 488.293L454.985 487.586ZM455.691 488.294L456.398 489.001L457.106 488.294L456.399 487.587L455.691 488.294ZM454.276 489.707L453.569 490.413L454.275 491.121L454.983 490.414L454.276 489.707ZM453.57 488.999L452.862 489.706L453.57 488.999ZM-70.3965 -35.674L-69.689 -36.3806L-69.689 -36.3806L-70.3965 -35.674ZM-71.1032 -36.3816L-71.8098 -37.0891L-72.5174 -36.3825L-71.8108 -35.6749L-71.1032 -36.3816ZM-86.6586 -20.8243L-85.951 -21.5309L-86.6576 -22.2385L-87.3652 -21.5318L-86.6586 -20.8243ZM-85.9519 -20.1167L-85.2444 -20.8233L-85.2444 -20.8233L-85.9519 -20.1167ZM-88.0737 -19.411L-88.7804 -20.1186L-89.488 -19.412L-88.7813 -18.7044L-88.0737 -19.411ZM-87.3671 -18.7034L-86.6595 -19.41L-86.6595 -19.4101L-87.3671 -18.7034ZM436.599 505.97L435.891 506.676L436.599 505.97ZM437.306 506.677L436.598 507.384L437.305 508.092L438.012 507.385L437.306 506.677ZM438.721 505.264L439.427 505.972L440.135 505.265L439.428 504.557L438.721 505.264ZM438.014 504.557L437.307 505.263L438.014 504.557ZM-102.922 -3.14612L-102.215 -3.85275L-102.215 -3.85275L-102.922 -3.14612ZM-103.629 -3.8537L-102.922 -4.56033L-103.628 -5.26791L-104.336 -4.56128L-103.629 -3.8537ZM421.044 521.527L420.336 522.234L421.044 521.527ZM421.75 522.235L422.457 522.942L423.164 522.236L422.458 521.528L421.75 522.235ZM420.335 523.648L419.627 524.355L420.334 525.062L421.042 524.356L420.335 523.648ZM419.628 522.94L418.921 523.647L419.628 522.94ZM-104.338 -1.73286L-103.63 -2.43949L-103.63 -2.43949L-104.338 -1.73286ZM-105.044 -2.44044L-105.751 -3.14802L-106.459 -2.44139L-105.752 -1.73381L-105.044 -2.44044ZM-120.6 13.1166L-119.892 12.41L-120.599 11.7024L-121.306 12.409L-120.6 13.1166ZM-119.893 13.8242L-119.185 13.1176L-119.185 13.1176L-119.893 13.8242ZM-122.015 14.5299L-122.721 13.8223L-123.429 14.5289L-122.722 15.2365L-122.015 14.5299ZM-121.308 15.2375L-120.601 14.5308L-120.601 14.5308L-121.308 15.2375ZM402.658 539.911L401.95 540.617L402.658 539.911ZM403.365 540.618L402.657 541.325L403.364 542.032L404.071 541.326L403.365 540.618ZM404.78 539.205L405.486 539.913L406.194 539.206L405.487 538.498L404.78 539.205ZM404.073 538.497L403.366 539.204L404.073 538.497ZM-136.864 30.795L-136.156 30.0884L-136.156 30.0884L-136.864 30.795ZM-137.57 30.0874L-136.863 29.3808L-137.569 28.6732L-138.277 29.3798L-137.57 30.0874ZM387.102 555.468L386.395 556.175L387.102 555.468ZM387.809 556.176L388.516 556.883L389.223 556.177L388.517 555.469L387.809 556.176ZM386.394 557.589L385.686 558.296L386.393 559.003L387.101 558.297L386.394 557.589ZM385.687 556.881L384.98 557.588L385.687 556.881ZM-138.279 32.2083L-137.571 31.5016L-137.571 31.5016L-138.279 32.2083ZM-138.985 31.5007L-139.692 30.7931L-140.4 31.4997L-139.693 32.2073L-138.985 31.5007ZM-154.541 47.058L-153.833 46.3514L-154.54 45.6438L-155.247 46.3504L-154.541 47.058ZM-153.834 47.7656L-153.127 47.0589L-153.127 47.0589L-153.834 47.7656ZM-155.956 48.4712L-156.663 47.7637L-157.37 48.4703L-156.664 49.1779L-155.956 48.4712ZM-155.249 49.1788L-154.542 48.4722L-154.542 48.4722L-155.249 49.1788ZM368.717 573.852L368.009 574.559L368.717 573.852ZM369.423 574.56L368.716 575.266L369.422 575.974L370.13 575.267L369.423 574.56ZM370.839 573.146L371.545 573.854L372.253 573.147L371.546 572.44L370.839 573.146ZM370.132 572.439L369.424 573.145L370.132 572.439ZM-170.805 64.7361L-170.097 64.0295L-170.097 64.0295L-170.805 64.7361ZM-171.511 64.0286L-170.804 63.3219L-171.51 62.6143L-172.218 63.321L-171.511 64.0286ZM353.161 589.409L352.454 590.116L353.161 589.409ZM353.868 590.117L354.575 590.824L355.282 590.118L354.576 589.41L353.868 590.117ZM352.453 591.53L351.745 592.237L352.452 592.944L353.159 592.238L352.453 591.53ZM351.746 590.823L351.039 591.529L351.746 590.823ZM-172.22 66.1494L-171.512 65.4428L-171.512 65.4428L-172.22 66.1494ZM-172.927 65.4418L-173.633 64.7342L-174.341 65.4409L-173.634 66.1484L-172.927 65.4418ZM-188.482 80.9991L-187.774 80.2925L-188.481 79.5849L-189.189 80.2915L-188.482 80.9991ZM-187.775 81.7067L-187.068 81.0001L-187.068 81.0001L-187.775 81.7067ZM-189.897 82.4124L-190.604 81.7048L-191.311 82.4114L-190.605 83.119L-189.897 82.4124ZM-189.19 83.12L-188.483 82.4133L-188.483 82.4133L-189.19 83.12ZM334.776 607.793L334.068 608.5L334.776 607.793ZM335.482 608.501L334.775 609.207L335.481 609.915L336.189 609.208L335.482 608.501ZM336.897 607.087L337.604 607.795L338.312 607.088L337.605 606.381L336.897 607.087ZM336.191 606.38L335.483 607.087L336.191 606.38ZM99.31 -206.794L100.017 -206.086L101.432 -207.499L100.725 -208.207L99.31 -206.794ZM99.3091 -205.38L100.724 -206.793L99.311 -208.208L97.8958 -206.795L99.3091 -205.38ZM100.017 -206.086L99.31 -206.794L97.8949 -205.381L98.6015 -204.673L100.017 -206.086ZM623.983 318.587L100.017 -206.086L98.6015 -204.673L622.568 320L623.983 318.587ZM624.689 319.295L623.983 318.587L622.568 320L623.274 320.708L624.689 319.295ZM624.69 317.88L623.275 319.294L624.688 320.709L626.104 319.295L624.69 317.88ZM623.983 318.587L624.689 319.295L626.105 317.881L625.398 317.174L623.983 318.587ZM100.017 -206.086L623.983 318.587L625.398 317.174L101.432 -207.499L100.017 -206.086ZM82.3395 -189.823L83.0461 -189.116L84.4613 -190.529L83.7546 -191.237L82.3395 -189.823ZM82.3385 -188.409L83.7537 -189.822L82.3404 -191.237L80.9253 -189.824L82.3385 -188.409ZM83.0461 -189.116L82.3395 -189.823L80.9243 -188.41L81.6309 -187.702L83.0461 -189.116ZM607.012 335.558L83.0461 -189.116L81.6309 -187.702L605.597 336.971L607.012 335.558ZM607.719 336.265L607.012 335.558L605.597 336.971L606.304 337.678L607.719 336.265ZM607.72 334.851L606.305 336.264L607.718 337.679L609.133 336.266L607.72 334.851ZM607.012 335.558L607.719 336.265L609.134 334.852L608.427 334.144L607.012 335.558ZM83.0461 -189.116L607.012 335.558L608.427 334.144L84.4613 -190.529L83.0461 -189.116ZM67.4907 -173.558L66.7841 -174.266L65.3689 -172.853L66.0755 -172.145L67.4907 -173.558ZM591.457 351.115L67.4907 -173.558L66.0755 -172.145L590.042 352.528L591.457 351.115ZM592.163 351.822L591.457 351.115L590.042 352.528L590.748 353.236L592.163 351.822ZM590.747 354.65L592.162 353.237L590.749 351.821L589.334 353.235L590.747 354.65ZM588.626 353.941L589.333 354.649L590.748 353.236L590.042 352.528L588.626 353.941ZM64.6604 -170.732L588.626 353.941L590.042 352.528L66.0755 -172.145L64.6604 -170.732ZM63.9537 -171.439L64.6604 -170.732L66.0755 -172.145L65.3689 -172.853L63.9537 -171.439ZM65.3699 -174.267L63.9547 -172.854L65.368 -171.438L66.7831 -172.852L65.3699 -174.267ZM48.3984 -155.882L49.105 -155.175L50.5201 -156.588L49.8135 -157.295L48.3984 -155.882ZM48.3974 -154.468L49.8126 -155.881L48.3993 -157.296L46.9841 -155.883L48.3974 -154.468ZM49.105 -155.175L48.3983 -155.882L46.9832 -154.469L47.6898 -153.761L49.105 -155.175ZM573.071 369.499L49.105 -155.175L47.6898 -153.761L571.656 370.912L573.071 369.499ZM573.778 370.206L573.071 369.499L571.656 370.912L572.363 371.619L573.778 370.206ZM573.779 368.792L572.363 370.205L573.777 371.62L575.192 370.207L573.779 368.792ZM573.071 369.499L573.778 370.206L575.193 368.793L574.486 368.085L573.071 369.499ZM49.105 -155.175L573.071 369.499L574.486 368.085L50.5201 -156.588L49.105 -155.175ZM33.5496 -139.617L32.843 -140.325L31.4278 -138.912L32.1344 -138.204L33.5496 -139.617ZM557.516 385.056L33.5496 -139.617L32.1344 -138.204L556.101 386.469L557.516 385.056ZM558.222 385.764L557.516 385.056L556.101 386.469L556.807 387.177L558.222 385.764ZM556.806 388.591L558.221 387.178L556.808 385.763L555.393 387.176L556.806 388.591ZM554.685 387.882L555.392 388.59L556.807 387.177L556.101 386.469L554.685 387.882ZM30.7193 -136.791L554.685 387.882L556.101 386.469L32.1344 -138.204L30.7193 -136.791ZM30.0126 -137.498L30.7193 -136.791L32.1344 -138.204L31.4278 -138.912L30.0126 -137.498ZM31.4287 -140.326L30.0136 -138.913L31.4268 -137.497L32.842 -138.911L31.4287 -140.326ZM14.4572 -121.941L15.1639 -121.233L16.579 -122.647L15.8724 -123.354L14.4572 -121.941ZM14.4563 -120.527L15.8714 -121.94L14.4582 -123.355L13.043 -121.942L14.4563 -120.527ZM15.1639 -121.233L14.4572 -121.941L13.0421 -120.528L13.7487 -119.82L15.1639 -121.233ZM539.13 403.44L15.1639 -121.233L13.7487 -119.82L537.715 404.853L539.13 403.44ZM539.837 404.147L539.13 403.44L537.715 404.853L538.421 405.561L539.837 404.147ZM539.838 402.733L538.422 404.146L539.836 405.562L541.251 404.148L539.838 402.733ZM539.13 403.44L539.837 404.147L541.252 402.734L540.545 402.027L539.13 403.44ZM15.1639 -121.233L539.13 403.44L540.545 402.027L16.579 -122.647L15.1639 -121.233ZM-0.391433 -105.676L-1.09807 -106.384L-2.51323 -104.971L-1.8066 -104.263L-0.391433 -105.676ZM523.575 418.997L-0.391431 -105.676L-1.8066 -104.263L522.16 420.41L523.575 418.997ZM524.281 419.704L523.575 418.997L522.16 420.41L522.866 421.118L524.281 419.704ZM522.865 422.532L524.28 421.119L522.867 419.703L521.452 421.117L522.865 422.532ZM520.744 421.823L521.451 422.531L522.866 421.118L522.16 420.41L520.744 421.823ZM-3.22177 -102.85L520.744 421.823L522.16 420.41L-1.8066 -104.263L-3.22177 -102.85ZM-3.9284 -103.557L-3.22176 -102.85L-1.8066 -104.263L-2.51323 -104.971L-3.9284 -103.557ZM-2.51228 -106.385L-3.92745 -104.972L-2.51418 -103.556L-1.09901 -104.97L-2.51228 -106.385ZM-19.4839 -87.9999L-18.7773 -87.2923L-17.3621 -88.7056L-18.0687 -89.4131L-19.4839 -87.9999ZM-19.4849 -86.5857L-18.0697 -87.9989L-19.4829 -89.4141L-20.8981 -88.0008L-19.4849 -86.5857ZM-18.7773 -87.2923L-19.4839 -87.9999L-20.8991 -86.5866L-20.1924 -85.879L-18.7773 -87.2923ZM505.189 437.381L-18.7773 -87.2923L-20.1924 -85.879L503.774 438.794L505.189 437.381ZM505.895 438.088L505.189 437.381L503.774 438.794L504.48 439.502L505.895 438.088ZM505.896 436.674L504.481 438.088L505.895 439.503L507.31 438.089L505.896 436.674ZM505.189 437.381L505.895 438.088L507.311 436.675L506.604 435.968L505.189 437.381ZM-18.7773 -87.2923L505.189 437.381L506.604 435.968L-17.3621 -88.7056L-18.7773 -87.2923ZM-34.3327 -71.735L-35.0393 -72.4426L-36.4545 -71.0293L-35.7478 -70.3217L-34.3327 -71.735ZM489.633 452.938L-34.3327 -71.735L-35.7478 -70.3217L488.218 454.351L489.633 452.938ZM490.34 453.646L489.633 452.938L488.218 454.351L488.925 455.059L490.34 453.646ZM488.924 456.473L490.339 455.06L488.926 453.645L487.511 455.058L488.924 456.473ZM486.803 455.765L487.51 456.472L488.925 455.059L488.218 454.351L486.803 455.765ZM-37.163 -68.9085L486.803 455.765L488.218 454.352L-35.7478 -70.3217L-37.163 -68.9085ZM-37.8696 -69.6161L-37.163 -68.9085L-35.7478 -70.3217L-36.4545 -71.0293L-37.8696 -69.6161ZM-36.4535 -72.4435L-37.8687 -71.0303L-36.4554 -69.6151L-35.0402 -71.0284L-36.4535 -72.4435ZM-53.425 -54.0588L-52.7184 -53.3512L-51.3032 -54.7644L-52.0099 -55.472L-53.425 -54.0588ZM-53.426 -52.6445L-52.0108 -54.0578L-53.4241 -55.473L-54.8392 -54.0597L-53.426 -52.6445ZM-52.7184 -53.3512L-53.425 -54.0588L-54.8402 -52.6455L-54.1336 -51.9379L-52.7184 -53.3512ZM471.248 471.322L-52.7184 -53.3512L-54.1336 -51.9379L469.833 472.735L471.248 471.322ZM471.954 472.03L471.248 471.322L469.833 472.735L470.539 473.443L471.954 472.03ZM471.955 470.615L470.54 472.029L471.953 473.444L473.369 472.031L471.955 470.615ZM471.248 471.322L471.954 472.03L473.369 470.616L472.663 469.909L471.248 471.322ZM-52.7184 -53.3512L471.248 471.322L472.663 469.909L-51.3032 -54.7644L-52.7184 -53.3512ZM-68.2738 -37.7939L-68.9804 -38.5015L-70.3956 -37.0882L-69.689 -36.3806L-68.2738 -37.7939ZM455.692 486.879L-68.2738 -37.7939L-69.689 -36.3806L454.277 488.293L455.692 486.879ZM456.399 487.587L455.692 486.879L454.277 488.293L454.984 489L456.399 487.587ZM454.983 490.414L456.398 489.001L454.985 487.586L453.57 488.999L454.983 490.414ZM452.862 489.706L453.569 490.413L454.984 489L454.277 488.293L452.862 489.706ZM-71.1041 -34.9674L452.862 489.706L454.277 488.293L-69.689 -36.3806L-71.1041 -34.9674ZM-71.8108 -35.6749L-71.1041 -34.9673L-69.689 -36.3806L-70.3956 -37.0882L-71.8108 -35.6749ZM-70.3946 -38.5024L-71.8098 -37.0891L-70.3965 -35.674L-68.9814 -37.0872L-70.3946 -38.5024ZM-87.3661 -20.1176L-86.6595 -19.41L-85.2444 -20.8233L-85.951 -21.5309L-87.3661 -20.1176ZM-87.3671 -18.7034L-85.9519 -20.1167L-87.3652 -21.5318L-88.7804 -20.1186L-87.3671 -18.7034ZM-86.6595 -19.4101L-87.3662 -20.1176L-88.7813 -18.7044L-88.0747 -17.9968L-86.6595 -19.4101ZM437.307 505.263L-86.6595 -19.41L-88.0747 -17.9968L435.891 506.676L437.307 505.263ZM438.013 505.971L437.307 505.263L435.891 506.676L436.598 507.384L438.013 505.971ZM438.014 504.557L436.599 505.97L438.012 507.385L439.427 505.972L438.014 504.557ZM437.307 505.263L438.013 505.971L439.428 504.557L438.722 503.85L437.307 505.263ZM-86.6595 -19.41L437.307 505.263L438.722 503.85L-85.2444 -20.8233L-86.6595 -19.41ZM-102.215 -3.85275L-102.922 -4.56033L-104.337 -3.14707L-103.63 -2.43948L-102.215 -3.85275ZM421.751 520.82L-102.215 -3.85275L-103.63 -2.43949L420.336 522.234L421.751 520.82ZM422.458 521.528L421.751 520.82L420.336 522.234L421.043 522.941L422.458 521.528ZM421.042 524.356L422.457 522.942L421.044 521.527L419.628 522.94L421.042 524.356ZM418.921 523.647L419.627 524.355L421.043 522.941L420.336 522.234L418.921 523.647ZM-105.045 -1.02623L418.921 523.647L420.336 522.234L-103.63 -2.43949L-105.045 -1.02623ZM-105.752 -1.73381L-105.045 -1.02622L-103.63 -2.43949L-104.337 -3.14707L-105.752 -1.73381ZM-104.336 -4.56128L-105.751 -3.14802L-104.338 -1.73286L-102.922 -3.14612L-104.336 -4.56128ZM-121.307 13.8233L-120.601 14.5308L-119.185 13.1176L-119.892 12.41L-121.307 13.8233ZM-121.308 15.2375L-119.893 13.8242L-121.306 12.409L-122.721 13.8223L-121.308 15.2375ZM-120.601 14.5308L-121.307 13.8233L-122.722 15.2365L-122.016 15.9441L-120.601 14.5308ZM403.366 539.204L-120.601 14.5308L-122.016 15.9441L401.95 540.617L403.366 539.204ZM404.072 539.912L403.366 539.204L401.95 540.617L402.657 541.325L404.072 539.912ZM404.073 538.497L402.658 539.911L404.071 541.326L405.486 539.913L404.073 538.497ZM403.366 539.204L404.072 539.912L405.487 538.498L404.781 537.791L403.366 539.204ZM-120.601 14.5308L403.366 539.204L404.781 537.791L-119.185 13.1176L-120.601 14.5308ZM-136.156 30.0884L-136.863 29.3808L-138.278 30.7941L-137.571 31.5016L-136.156 30.0884ZM387.81 554.762L-136.156 30.0884L-137.571 31.5016L386.395 556.175L387.81 554.762ZM388.517 555.469L387.81 554.762L386.395 556.175L387.102 556.882L388.517 555.469ZM387.101 558.297L388.516 556.883L387.102 555.468L385.687 556.881L387.101 558.297ZM384.98 557.588L385.686 558.296L387.102 556.882L386.395 556.175L384.98 557.588ZM-138.986 32.9149L384.98 557.588L386.395 556.175L-137.571 31.5016L-138.986 32.9149ZM-139.693 32.2073L-138.986 32.9149L-137.571 31.5016L-138.278 30.7941L-139.693 32.2073ZM-138.277 29.3798L-139.692 30.7931L-138.279 32.2083L-136.864 30.795L-138.277 29.3798ZM-155.248 47.7646L-154.542 48.4722L-153.127 47.0589L-153.833 46.3514L-155.248 47.7646ZM-155.249 49.1788L-153.834 47.7656L-155.247 46.3504L-156.663 47.7637L-155.249 49.1788ZM-154.542 48.4722L-155.248 47.7646L-156.664 49.1779L-155.957 49.8855L-154.542 48.4722ZM369.424 573.145L-154.542 48.4722L-155.957 49.8855L368.009 574.559L369.424 573.145ZM370.131 573.853L369.424 573.145L368.009 574.559L368.716 575.266L370.131 573.853ZM370.132 572.439L368.717 573.852L370.13 575.267L371.545 573.854L370.132 572.439ZM369.424 573.145L370.131 573.853L371.546 572.44L370.839 571.732L369.424 573.145ZM-154.542 48.4722L369.424 573.145L370.84 571.732L-153.127 47.0589L-154.542 48.4722ZM-170.097 64.0295L-170.804 63.3219L-172.219 64.7352L-171.512 65.4428L-170.097 64.0295ZM353.869 588.703L-170.097 64.0295L-171.512 65.4428L352.454 590.116L353.869 588.703ZM354.576 589.41L353.869 588.703L352.454 590.116L353.16 590.824L354.576 589.41ZM353.159 592.238L354.575 590.824L353.161 589.409L351.746 590.823L353.159 592.238ZM351.039 591.529L351.745 592.237L353.16 590.824L352.454 590.116L351.039 591.529ZM-172.927 66.856L351.039 591.529L352.454 590.116L-171.512 65.4428L-172.927 66.856ZM-173.634 66.1484L-172.927 66.856L-171.512 65.4428L-172.219 64.7352L-173.634 66.1484ZM-172.218 63.321L-173.633 64.7342L-172.22 66.1494L-170.805 64.7361L-172.218 63.321ZM-189.19 81.7057L-188.483 82.4133L-187.068 81.0001L-187.774 80.2925L-189.19 81.7057ZM-189.19 83.12L-187.775 81.7067L-189.189 80.2915L-190.604 81.7048L-189.19 83.12ZM-188.483 82.4133L-189.19 81.7057L-190.605 83.119L-189.898 83.8266L-188.483 82.4133ZM335.483 607.087L-188.483 82.4133L-189.898 83.8266L334.068 608.5L335.483 607.087ZM336.19 607.794L335.483 607.087L334.068 608.5L334.775 609.207L336.19 607.794ZM336.191 606.38L334.776 607.793L336.189 609.208L337.604 607.795L336.191 606.38ZM335.483 607.087L336.19 607.794L337.605 606.381L336.898 605.673L335.483 607.087ZM-188.483 82.4133L335.483 607.087L336.898 605.673L-187.068 81.0001L-188.483 82.4133Z" fill="black"/>
</g>
</svg>
