<svg width="144" height="302" viewBox="0 0 144 302" fill="none" xmlns="http://www.w3.org/2000/svg">
<path fill-rule="evenodd" clip-rule="evenodd" d="M50.3172 162.497C70.4955 167.093 93.7708 158.686 104.442 141.085C109.234 133.182 112.389 125.427 113.988 117.812C135.345 130.156 143.516 147.48 140.819 169.174C138.591 187.097 129.364 206.7 114.238 229.534C100.27 250.618 74.2216 276.306 59.482 283.259C55.0773 285.337 49.9939 287.136 44.2172 288.737C36.2989 290.932 13.321 295.393 14.8939 295.027C12.0291 295.693 9.81007 296.425 4.87908 298.218C2.44183 299.104 1.35835 299.488 0 299.937L0.626592 301.836C2.01028 301.379 3.1063 300.99 5.56235 300.097C10.4179 298.332 12.5862 297.617 15.3467 296.975C13.7048 297.357 36.7419 292.885 44.7514 290.665C50.6299 289.035 55.8171 287.2 60.3354 285.068C75.4541 277.936 101.753 252.001 115.905 230.639C131.188 207.568 140.529 187.724 142.804 169.421C145.625 146.733 136.893 128.507 114.386 115.736C117.032 100.482 113.422 85.7941 104.206 71.6095C92.766 54.0022 73.4129 37.932 46.6149 21.7433C35.247 14.8759 27.1371 10.4815 7.08555 0L6.15904 1.77245C26.1735 12.2345 34.2603 16.6164 45.5808 23.4551C72.1427 39.5013 91.2889 55.3997 102.529 72.6992C111.33 86.2461 114.865 100.201 112.53 114.712C112.176 114.522 111.82 114.334 111.46 114.146C103.52 110.019 84.8045 105.376 68.8876 104.123C48.0292 102.48 33.3565 106.212 29.0195 116.648C19.2062 140.259 28.9613 157.632 50.3172 162.497ZM68.7306 106.117C84.3993 107.351 102.86 111.93 110.537 115.921C111.085 116.206 111.625 116.493 112.157 116.784C110.648 124.378 107.535 132.126 102.732 140.048C92.5315 156.873 70.1389 164.96 50.7614 160.546C30.5827 155.95 21.5422 139.85 30.8663 117.415C34.7468 108.078 48.6701 104.537 68.7306 106.117Z" fill="black"/>
</svg>
